<svg xmlns="http://www.w3.org/2000/svg"  viewBox="0 0 48 48" width="48px" height="48px"><path fill="#f58420" d="M40.927,14.604c-0.086-0.118-0.25-0.163-0.401-0.196c-0.934-0.202-1.902-0.224-2.861-0.246 c-1.676-0.038-25.7,0.876-28.571,0.744l-0.012,0.227c-0.162,0.928-0.084,1.889,0.226,2.785c0.084,0.243,0.192,0.49,0.4,0.66 c0.238,0.193,0.568,0.255,0.881,0.305c2.912,0.466,22.37,0.191,29.125-0.248c0.4-0.026,0.853-0.078,1.088-0.374 c0.164-0.208,0.173-0.483,0.175-0.739c0.008-0.858,0.015-1.717,0.023-2.575C41.001,14.829,40.999,14.703,40.927,14.604z"/><path fill="#f58420" d="M40.692,7.369c-0.084-0.243-0.192-0.49-0.4-0.66c-0.238-0.193-0.568-0.255-0.881-0.305 c-2.912-0.466-22.37-0.191-29.125,0.248c-0.4,0.026-0.853,0.078-1.088,0.374C9.034,7.234,9.025,7.508,9.023,7.765 C9.015,8.623,9.008,9.482,9,10.34c-0.001,0.118,0,0.244,0.072,0.343c0.086,0.118,0.25,0.163,0.401,0.196 c0.934,0.202,1.902,0.224,2.861,0.246c1.676,0.038,25.7-0.876,28.571-0.744l0.012-0.227C41.08,9.226,41.002,8.265,40.692,7.369z"/><polygon fill="#f58420" points="9.566,40.642 9.818,23.437 40.5,23.5 38.739,41.484 35.732,40.551 24.579,33.882"/><path fill="#010101" d="M39.483,38.477c0.144-4.954,1.452-9.792,1.51-14.754c0.108-0.253-0.069-0.61-0.335-0.706 c-0.253-0.091-0.627-0.04-0.886-0.05c-0.711-0.026-1.422-0.048-2.133-0.07c-2.371-0.072-4.742-0.133-7.114-0.185 c-5.494-0.12-11-0.24-16.495-0.09c-1.022,0.028-2.046,0.062-3.065,0.155c-0.561,0.051-1.2,0.073-1.716,0.33 c-0.194,0.097-0.258,0.259-0.245,0.42c0,0.004-0.002,0.007-0.003,0.011c-0.128,4.997-0.247,10.004-0.162,15.003 c0.017,1.02-0.008,2.083,0.179,3.09c0.07,0.379,0.587,0.47,0.836,0.221c1.183-1.187,2.838-1.919,4.307-2.681 c1.797-0.931,3.538-1.925,5.401-2.725c1.12-0.481,2.247-0.947,3.37-1.419c0.37-0.155,1.246-0.718,1.643-0.581 c0.067,0.023,0.124,0.108,0.188,0.148c0.558,0.343,1.079,0.765,1.621,1.134c2.381,1.622,4.835,3.164,7.41,4.461 c1.266,0.638,2.576,1.235,3.941,1.631c0.639,0.185,1.415,0.351,1.698-0.433c0.136-0.378,0.065-0.802,0.052-1.194 C39.466,39.622,39.466,39.049,39.483,38.477z M38.595,36.554c-0.092,1.096-0.141,2.196-0.119,3.295 c0.005,0.269,0.018,0.538,0.029,0.807c0.003,0.073,0.023,0.182,0.009,0.256c-0.032,0.177-0.017,0.075-0.021,0.076 c-0.241,0.038-0.703-0.193-0.935-0.269c-1.378-0.451-2.693-1.086-3.974-1.762c-2.435-1.285-4.769-2.765-7.036-4.326 c-0.43-0.296-0.864-0.589-1.281-0.903c-0.016-0.016-0.164-0.135-0.182-0.147c-0.11-0.074-0.239-0.154-0.372-0.183 c-0.53-0.116-1.12,0.276-1.588,0.473c-1.061,0.446-2.123,0.891-3.184,1.338c-2.088,0.88-4.043,1.936-6.049,2.977 c-1.336,0.694-2.782,1.376-3.988,2.321c-0.002-0.028-0.004-0.056-0.006-0.084C9.87,39.9,9.856,39.375,9.845,38.85 c-0.03-1.463-0.028-2.927-0.021-4.391c0.016-2.978,0.067-5.955,0.131-8.932c0.012-0.538,0.024-1.076,0.037-1.614 c0.047-0.011,0.094-0.022,0.142-0.031c0.293-0.055,0.428-0.065,0.771-0.097c0.856-0.08,1.717-0.115,2.576-0.144 c2.491-0.083,4.985-0.081,7.477-0.067c5.303,0.03,10.605,0.146,15.906,0.302c0.877,0.026,1.754,0.053,2.631,0.083 c0.164,0.006,0.328,0.012,0.491,0.018C39.901,28.207,38.95,32.345,38.595,36.554z"/><path fill="#010101" d="M41.441,14.605c0.008-0.121-0.037-0.247-0.16-0.355c-0.694-0.612-2.025-0.538-2.896-0.57 c-0.347-0.013-0.694-0.022-1.042-0.019c-0.564,0.005-1.128,0.022-1.692,0.038c-2.067,0.056-4.134,0.124-6.2,0.19 c-5.146,0.165-10.291,0.34-15.438,0.463c-1.634,0.039-3.285,0.125-4.919,0.053c-0.28-0.012-0.487,0.239-0.5,0.5 c-0.078,1.532-0.304,4.023,1.673,4.427c0.636,0.13,1.3,0.152,1.946,0.183c2.206,0.106,4.418,0.108,6.627,0.11 c5.738,0.003,11.481-0.09,17.215-0.311c1.161-0.045,2.323-0.093,3.483-0.168c0.829-0.054,1.73-0.21,1.903-1.17 c0.101-0.56,0.042-1.174,0.047-1.742C41.493,15.73,41.582,15.107,41.441,14.605z M40.472,17.717 c-0.152,0.55-1.159,0.445-1.641,0.471c-0.988,0.054-1.977,0.097-2.966,0.134c-2.56,0.097-5.122,0.161-7.684,0.21 c-4.911,0.094-9.833,0.174-14.745,0.03c-0.777-0.023-1.556-0.047-2.33-0.118c-0.463-0.042-1.084-0.04-1.317-0.659 c-0.3-0.8-0.272-1.569-0.225-2.376c1.186,0.029,2.378-0.011,3.562-0.037c2.345-0.051,4.69-0.12,7.035-0.19 c4.836-0.146,9.671-0.314,14.506-0.455c0.756-0.022,1.513-0.044,2.269-0.059c0.207-0.004,0.414-0.009,0.621-0.008 c0.276,0.001,0.552,0.01,0.827,0.02c0.36,0.013,0.72,0.03,1.078,0.067c0.256,0.026,0.755,0.021,1.021,0.166 c0.087,0.41,0.008,0.931,0.005,1.321C40.484,16.679,40.59,17.289,40.472,17.717z"/><path fill="#010101" d="M41.174,7.236c-0.311-0.824-0.823-1.193-1.689-1.323c-0.276-0.042-0.553-0.068-0.831-0.09 c-0.797-0.061-1.597-0.085-2.395-0.106c-2.504-0.066-5.01-0.063-7.515-0.049C23.2,5.699,17.65,5.786,12.112,6.051 c-0.941,0.045-2.6-0.145-3.267,0.622C8.576,6.981,8.537,7.373,8.523,7.765c-0.021,0.584-0.01,1.172-0.016,1.756 c-0.004,0.42-0.103,0.969,0.108,1.355c0.199,0.363,0.577,0.46,0.959,0.533c1.64,0.312,3.343,0.219,5.004,0.173 c4.57-0.127,9.138-0.288,13.707-0.429c4.015-0.124,8.041-0.315,12.058-0.283c0.187,0.002,0.374,0.004,0.561,0.012 c0.28,0.012,0.487-0.239,0.5-0.5C41.462,9.279,41.521,8.307,41.174,7.236z M31.03,10.069c-4.634,0.136-9.267,0.293-13.901,0.437 c-1.41,0.044-2.821,0.093-4.231,0.116c-0.939,0.016-1.893,0.005-2.821-0.138c-0.133-0.02-0.489-0.022-0.576-0.143 c-0.084-0.117,0.006-0.69,0.007-0.82c0.005-0.546,0.006-1.093,0.015-1.639c0.009-0.604,0.311-0.699,0.851-0.736 c0.216-0.015,0.433-0.027,0.649-0.039c5.03-0.284,10.075-0.362,15.112-0.418c2.612-0.029,5.224-0.042,7.836-0.013 c1.665,0.018,3.348,0.011,5.007,0.174c0.416,0.041,1.012,0.062,1.234,0.651c0.269,0.83,0.261,1.564,0.221,2.371 C37.308,9.77,34.148,9.977,31.03,10.069z"/></svg>