<svg xmlns="http://www.w3.org/2000/svg"  viewBox="0 0 100 100" width="100px" height="100px" baseProfile="basic"><path d="M88,17H18c-0.552,0-1,0.448-1,1v70c0,0.552,0.448,1,1,1h70c0.552,0,1-0.448,1-1V18	C89,17.448,88.552,17,88,17z" opacity=".35"/><rect width="70" height="70" x="15" y="15" fill="#545454"/><polygon fill="#fffeee" points="70,69 60,69 32,30 42,30"/><linearGradient id="gxfyZfW1ROPBg1q0i-0f0a" x1="44.767" x2="55.202" y1="13.745" y2="86.04" gradientUnits="userSpaceOnUse"><stop offset=".004" stop-color="#ffe8c7"/><stop offset=".349" stop-color="#f9d4a0"/><stop offset="1" stop-color="#ebab4d"/></linearGradient><path fill="url(#gxfyZfW1ROPBg1q0i-0f0a)" d="M85,14H15c-0.552,0-1,0.448-1,1v70c0,0.552,0.448,1,1,1h70c0.552,0,1-0.448,1-1V15	C86,14.448,85.552,14,85,14z M84,84H16V16h68V84z M46.339,51.687L32.237,68.354c-0.357,0.422-0.304,1.053,0.117,1.409	C32.542,69.922,32.771,70,33,70c0.284,0,0.566-0.12,0.764-0.354l13.779-16.284l11.646,16.221C59.375,69.845,59.678,70,60,70h10	c0.375,0,0.719-0.21,0.89-0.543c0.171-0.333,0.142-0.735-0.077-1.04L54.284,45.395l12.48-14.749	c0.357-0.422,0.304-1.053-0.117-1.409c-0.422-0.358-1.053-0.304-1.409,0.117L53.081,43.72L42.812,29.417	C42.625,29.155,42.322,29,42,29H32c-0.375,0-0.719,0.21-0.89,0.543c-0.171,0.333-0.142,0.735,0.077,1.04L46.339,51.687z M41.487,31	l26.564,37h-7.538L33.949,31H41.487z"/></svg>